<svg xmlns="http://www.w3.org/2000/svg" xmlns:xlink="http://www.w3.org/1999/xlink" width="500" zoomAndPan="magnify" viewBox="0 0 375 374.999991" height="500" preserveAspectRatio="xMidYMid meet" version="1.2"><defs><clipPath id="c5f112c4a2"><path d="M 49.078125 2.9375 L 325.828125 2.9375 L 325.828125 371.9375 L 49.078125 371.9375 Z M 49.078125 2.9375 "/></clipPath></defs><g id="8858be052e"><g clip-rule="nonzero" clip-path="url(#c5f112c4a2)"><path style=" stroke:none;fill-rule:nonzero;fill:#c1ff72;fill-opacity:1;" d="M 187.453125 2.9375 C 111.140625 2.9375 49.078125 64.996094 49.078125 141.308594 C 49.078125 237.222656 173.984375 363.234375 179.289062 368.5625 C 181.546875 370.796875 184.5 371.929688 187.453125 371.929688 C 190.402344 371.929688 193.355469 370.796875 195.617188 368.5625 C 200.921875 363.234375 325.824219 237.222656 325.824219 141.308594 C 325.824219 64.996094 263.765625 2.9375 187.453125 2.9375 Z M 187.453125 2.9375 "/></g><path style=" stroke:none;fill-rule:nonzero;fill:#c1ff72;fill-opacity:1;" d="M 256.636719 141.308594 C 256.636719 142.441406 256.609375 143.570312 256.554688 144.703125 C 256.5 145.832031 256.414062 146.960938 256.304688 148.089844 C 256.195312 149.214844 256.054688 150.339844 255.890625 151.460938 C 255.722656 152.578125 255.53125 153.695312 255.308594 154.804688 C 255.085938 155.917969 254.839844 157.019531 254.566406 158.117188 C 254.289062 159.21875 253.988281 160.308594 253.660156 161.390625 C 253.332031 162.476562 252.976562 163.550781 252.59375 164.617188 C 252.210938 165.683594 251.804688 166.738281 251.371094 167.785156 C 250.9375 168.832031 250.480469 169.867188 249.996094 170.890625 C 249.511719 171.914062 249.003906 172.921875 248.46875 173.921875 C 247.933594 174.921875 247.378906 175.90625 246.796875 176.875 C 246.210938 177.847656 245.605469 178.804688 244.976562 179.746094 C 244.347656 180.6875 243.699219 181.613281 243.023438 182.523438 C 242.347656 183.433594 241.652344 184.324219 240.933594 185.199219 C 240.214844 186.074219 239.476562 186.933594 238.714844 187.769531 C 237.957031 188.609375 237.175781 189.429688 236.375 190.230469 C 235.574219 191.03125 234.753906 191.8125 233.914062 192.570312 C 233.074219 193.332031 232.21875 194.070312 231.34375 194.789062 C 230.46875 195.507812 229.574219 196.203125 228.667969 196.878906 C 227.757812 197.554688 226.832031 198.207031 225.890625 198.835938 C 224.949219 199.464844 223.992188 200.070312 223.019531 200.652344 C 222.050781 201.234375 221.066406 201.792969 220.066406 202.324219 C 219.066406 202.859375 218.054688 203.367188 217.03125 203.851562 C 216.007812 204.335938 214.972656 204.792969 213.929688 205.226562 C 212.882812 205.660156 211.828125 206.070312 210.761719 206.449219 C 209.695312 206.832031 208.621094 207.1875 207.535156 207.515625 C 206.453125 207.84375 205.359375 208.144531 204.261719 208.421875 C 203.164062 208.695312 202.058594 208.945312 200.949219 209.164062 C 199.839844 209.386719 198.722656 209.578125 197.605469 209.746094 C 196.484375 209.910156 195.359375 210.050781 194.234375 210.160156 C 193.105469 210.273438 191.976562 210.355469 190.847656 210.410156 C 189.714844 210.464844 188.585938 210.496094 187.453125 210.496094 C 186.320312 210.496094 185.1875 210.464844 184.058594 210.410156 C 182.925781 210.355469 181.796875 210.273438 180.671875 210.160156 C 179.542969 210.050781 178.421875 209.910156 177.300781 209.746094 C 176.179688 209.578125 175.066406 209.386719 173.953125 209.164062 C 172.84375 208.945312 171.738281 208.695312 170.640625 208.421875 C 169.542969 208.144531 168.453125 207.84375 167.367188 207.515625 C 166.285156 207.1875 165.210938 206.832031 164.144531 206.449219 C 163.078125 206.070312 162.023438 205.660156 160.976562 205.226562 C 159.929688 204.792969 158.894531 204.335938 157.871094 203.851562 C 156.847656 203.367188 155.835938 202.859375 154.839844 202.324219 C 153.839844 201.792969 152.855469 201.234375 151.882812 200.652344 C 150.914062 200.070312 149.957031 199.464844 149.015625 198.835938 C 148.074219 198.207031 147.148438 197.554688 146.238281 196.878906 C 145.328125 196.203125 144.4375 195.507812 143.5625 194.789062 C 142.6875 194.070312 141.828125 193.332031 140.988281 192.570312 C 140.152344 191.8125 139.332031 191.03125 138.53125 190.230469 C 137.730469 189.429688 136.949219 188.609375 136.1875 187.769531 C 135.429688 186.933594 134.6875 186.074219 133.96875 185.199219 C 133.253906 184.324219 132.554688 183.433594 131.882812 182.523438 C 131.207031 181.613281 130.554688 180.6875 129.925781 179.746094 C 129.296875 178.804688 128.691406 177.847656 128.109375 176.875 C 127.527344 175.90625 126.96875 174.921875 126.433594 173.921875 C 125.902344 172.921875 125.394531 171.914062 124.910156 170.890625 C 124.425781 169.867188 123.964844 168.832031 123.53125 167.785156 C 123.097656 166.738281 122.691406 165.683594 122.308594 164.617188 C 121.929688 163.550781 121.574219 162.476562 121.246094 161.390625 C 120.917969 160.308594 120.613281 159.21875 120.339844 158.117188 C 120.0625 157.019531 119.816406 155.917969 119.59375 154.804688 C 119.375 153.695312 119.179688 152.578125 119.015625 151.460938 C 118.847656 150.339844 118.710938 149.214844 118.597656 148.089844 C 118.488281 146.960938 118.40625 145.832031 118.347656 144.703125 C 118.292969 143.570312 118.265625 142.441406 118.265625 141.308594 C 118.265625 140.175781 118.292969 139.042969 118.347656 137.914062 C 118.40625 136.78125 118.488281 135.652344 118.597656 134.527344 C 118.710938 133.398438 118.847656 132.277344 119.015625 131.15625 C 119.179688 130.035156 119.375 128.921875 119.59375 127.8125 C 119.816406 126.699219 120.0625 125.597656 120.339844 124.496094 C 120.613281 123.398438 120.917969 122.308594 121.246094 121.222656 C 121.574219 120.140625 121.929688 119.066406 122.308594 118 C 122.691406 116.933594 123.097656 115.878906 123.53125 114.832031 C 123.964844 113.785156 124.425781 112.75 124.910156 111.726562 C 125.394531 110.703125 125.902344 109.691406 126.433594 108.695312 C 126.96875 107.695312 127.527344 106.710938 128.109375 105.738281 C 128.691406 104.769531 129.296875 103.8125 129.925781 102.871094 C 130.554688 101.929688 131.207031 101.003906 131.882812 100.09375 C 132.554688 99.183594 133.253906 98.292969 133.96875 97.417969 C 134.6875 96.542969 135.429688 95.683594 136.1875 94.847656 C 136.949219 94.007812 137.730469 93.1875 138.53125 92.386719 C 139.332031 91.585938 140.152344 90.804688 140.988281 90.042969 C 141.828125 89.285156 142.6875 88.546875 143.5625 87.828125 C 144.4375 87.109375 145.328125 86.410156 146.238281 85.738281 C 147.148438 85.0625 148.074219 84.410156 149.015625 83.78125 C 149.957031 83.152344 150.914062 82.546875 151.882812 81.964844 C 152.855469 81.382812 153.839844 80.824219 154.839844 80.292969 C 155.835938 79.757812 156.847656 79.25 157.871094 78.765625 C 158.894531 78.28125 159.929688 77.820312 160.976562 77.386719 C 162.023438 76.957031 163.078125 76.546875 164.144531 76.167969 C 165.210938 75.785156 166.285156 75.429688 167.367188 75.101562 C 168.453125 74.773438 169.542969 74.472656 170.640625 74.195312 C 171.738281 73.921875 172.84375 73.671875 173.953125 73.453125 C 175.066406 73.230469 176.179688 73.039062 177.300781 72.871094 C 178.421875 72.703125 179.542969 72.566406 180.671875 72.457031 C 181.796875 72.34375 182.925781 72.261719 184.058594 72.207031 C 185.1875 72.148438 186.320312 72.121094 187.453125 72.121094 C 188.585938 72.121094 189.714844 72.148438 190.847656 72.207031 C 191.976562 72.261719 193.105469 72.34375 194.234375 72.457031 C 195.359375 72.566406 196.484375 72.703125 197.605469 72.871094 C 198.722656 73.039062 199.839844 73.230469 200.949219 73.453125 C 202.058594 73.671875 203.164062 73.921875 204.261719 74.195312 C 205.359375 74.472656 206.453125 74.773438 207.535156 75.101562 C 208.621094 75.429688 209.695312 75.785156 210.761719 76.167969 C 211.828125 76.546875 212.882812 76.957031 213.929688 77.386719 C 214.972656 77.820312 216.007812 78.28125 217.03125 78.765625 C 218.054688 79.25 219.066406 79.757812 220.066406 80.292969 C 221.066406 80.824219 222.050781 81.382812 223.019531 81.964844 C 223.992188 82.546875 224.949219 83.152344 225.890625 83.78125 C 226.832031 84.410156 227.757812 85.0625 228.667969 85.738281 C 229.574219 86.410156 230.46875 87.109375 231.34375 87.828125 C 232.21875 88.546875 233.074219 89.285156 233.914062 90.042969 C 234.753906 90.804688 235.574219 91.585938 236.375 92.386719 C 237.175781 93.1875 237.957031 94.007812 238.714844 94.847656 C 239.476562 95.683594 240.214844 96.542969 240.933594 97.417969 C 241.652344 98.292969 242.347656 99.183594 243.023438 100.09375 C 243.699219 101.003906 244.347656 101.929688 244.976562 102.871094 C 245.605469 103.8125 246.210938 104.769531 246.796875 105.738281 C 247.378906 106.710938 247.933594 107.695312 248.46875 108.695312 C 249.003906 109.691406 249.511719 110.703125 249.996094 111.726562 C 250.480469 112.75 250.9375 113.785156 251.371094 114.832031 C 251.804688 115.878906 252.210938 116.933594 252.59375 118 C 252.976562 119.066406 253.332031 120.140625 253.660156 121.222656 C 253.988281 122.308594 254.289062 123.398438 254.566406 124.496094 C 254.839844 125.597656 255.085938 126.699219 255.308594 127.8125 C 255.53125 128.921875 255.722656 130.035156 255.890625 131.15625 C 256.054688 132.277344 256.195312 133.398438 256.304688 134.527344 C 256.414062 135.652344 256.5 136.78125 256.554688 137.914062 C 256.609375 139.042969 256.636719 140.175781 256.636719 141.308594 Z M 256.636719 141.308594 "/><g style="fill:#ffffff;fill-opacity:1;"><g transform="translate(87.096978, 216.982107)"><path style="stroke:none" d="M 83.375 3.4375 C 66.113281 3.4375 51.566406 -0.300781 39.734375 -7.78125 C 27.898438 -15.269531 19.539062 -25.539062 14.65625 -38.59375 C 9.769531 -51.644531 9.007812 -66.648438 12.375 -83.609375 C 15.726562 -99.785156 21.910156 -113.867188 30.921875 -125.859375 C 39.929688 -137.847656 51.039062 -147.160156 64.25 -153.796875 C 77.457031 -160.441406 92 -163.765625 107.875 -163.765625 C 122.539062 -163.765625 135.40625 -160.976562 146.46875 -155.40625 C 157.539062 -149.832031 166.242188 -142.046875 172.578125 -132.046875 C 178.921875 -122.046875 182.171875 -110.398438 182.328125 -97.109375 L 136.046875 -97.109375 C 134.984375 -104.441406 131.703125 -110.242188 126.203125 -114.515625 C 120.703125 -118.796875 113.753906 -120.9375 105.359375 -120.9375 C 97.722656 -120.9375 90.695312 -119.21875 84.28125 -115.78125 C 77.875 -112.34375 72.457031 -107.53125 68.03125 -101.34375 C 63.601562 -95.164062 60.546875 -88.03125 58.859375 -79.9375 C 56.421875 -67.875 57.910156 -58.097656 63.328125 -50.609375 C 68.753906 -43.128906 77.113281 -39.390625 88.40625 -39.390625 C 96.957031 -39.390625 104.9375 -41.601562 112.34375 -46.03125 C 119.75 -50.46875 125.664062 -56.503906 130.09375 -64.140625 L 177.28125 -64.140625 C 172.238281 -50.085938 165.097656 -38.019531 155.859375 -27.9375 C 146.628906 -17.863281 135.828125 -10.113281 123.453125 -4.6875 C 111.085938 0.726562 97.726562 3.4375 83.375 3.4375 Z M 83.375 3.4375 "/></g></g></g></svg>