<svg xmlns="http://www.w3.org/2000/svg" xmlns:xlink="http://www.w3.org/1999/xlink" width="209" zoomAndPan="magnify" viewBox="0 0 156.75 74.999997" height="100" preserveAspectRatio="xMidYMid meet" version="1.2"><defs><clipPath id="e889f56668"><path d="M 0 2.40625 L 54.664062 2.40625 L 54.664062 74.9375 L 0 74.9375 Z M 0 2.40625 "/></clipPath></defs><g id="5fea79772d"><g clip-rule="nonzero" clip-path="url(#e889f56668)"><path style=" stroke:none;fill-rule:nonzero;fill:#c1ff72;fill-opacity:1;" d="M 27.144531 2.40625 C 12.175781 2.40625 0.00390625 14.578125 0.00390625 29.546875 C 0.00390625 48.359375 24.503906 73.074219 25.542969 74.121094 C 25.984375 74.558594 26.566406 74.78125 27.144531 74.78125 C 27.722656 74.78125 28.300781 74.558594 28.746094 74.121094 C 29.785156 73.074219 54.285156 48.359375 54.285156 29.546875 C 54.285156 14.578125 42.113281 2.40625 27.144531 2.40625 Z M 27.144531 2.40625 "/></g><path style=" stroke:none;fill-rule:nonzero;fill:#c1ff72;fill-opacity:1;" d="M 40.714844 29.546875 C 40.714844 30.4375 40.628906 31.320312 40.453125 32.191406 C 40.28125 33.066406 40.023438 33.914062 39.683594 34.738281 C 39.339844 35.5625 38.921875 36.34375 38.429688 37.085938 C 37.933594 37.824219 37.371094 38.511719 36.738281 39.140625 C 36.109375 39.773438 35.425781 40.335938 34.683594 40.828125 C 33.941406 41.324219 33.160156 41.742188 32.335938 42.082031 C 31.515625 42.425781 30.664062 42.683594 29.792969 42.855469 C 28.917969 43.03125 28.035156 43.117188 27.144531 43.117188 C 26.253906 43.117188 25.371094 43.03125 24.496094 42.855469 C 23.621094 42.683594 22.773438 42.425781 21.949219 42.082031 C 21.128906 41.742188 20.34375 41.324219 19.605469 40.828125 C 18.863281 40.335938 18.179688 39.773438 17.546875 39.140625 C 16.917969 38.511719 16.355469 37.824219 15.859375 37.085938 C 15.367188 36.34375 14.949219 35.5625 14.605469 34.738281 C 14.265625 33.914062 14.007812 33.066406 13.835938 32.191406 C 13.660156 31.320312 13.574219 30.4375 13.574219 29.546875 C 13.574219 28.65625 13.660156 27.773438 13.835938 26.898438 C 14.007812 26.023438 14.265625 25.175781 14.605469 24.351562 C 14.949219 23.53125 15.367188 22.746094 15.859375 22.007812 C 16.355469 21.265625 16.917969 20.578125 17.546875 19.949219 C 18.179688 19.320312 18.863281 18.757812 19.605469 18.261719 C 20.34375 17.765625 21.128906 17.347656 21.949219 17.007812 C 22.773438 16.667969 23.621094 16.410156 24.496094 16.234375 C 25.371094 16.0625 26.253906 15.976562 27.144531 15.976562 C 28.035156 15.976562 28.917969 16.0625 29.792969 16.234375 C 30.664062 16.410156 31.515625 16.667969 32.335938 17.007812 C 33.160156 17.347656 33.941406 17.765625 34.683594 18.261719 C 35.425781 18.757812 36.109375 19.320312 36.738281 19.949219 C 37.371094 20.578125 37.933594 21.265625 38.429688 22.007812 C 38.921875 22.746094 39.339844 23.53125 39.683594 24.351562 C 40.023438 25.175781 40.28125 26.023438 40.453125 26.898438 C 40.628906 27.773438 40.714844 28.65625 40.714844 29.546875 Z M 40.714844 29.546875 "/><g style="fill:#ffffff;fill-opacity:1;"><g transform="translate(5.684299, 46.338888)"><path style="stroke:none" d="M 17.875 0.734375 C 14.175781 0.734375 11.054688 -0.0664062 8.515625 -1.671875 C 5.984375 -3.273438 4.191406 -5.476562 3.140625 -8.28125 C 2.097656 -11.082031 1.9375 -14.300781 2.65625 -17.9375 C 3.375 -21.40625 4.695312 -24.421875 6.625 -26.984375 C 8.5625 -29.554688 10.945312 -31.554688 13.78125 -32.984375 C 16.613281 -34.410156 19.734375 -35.125 23.140625 -35.125 C 26.285156 -35.125 29.046875 -34.523438 31.421875 -33.328125 C 33.796875 -32.128906 35.660156 -30.457031 37.015625 -28.3125 C 38.367188 -26.175781 39.066406 -23.679688 39.109375 -20.828125 L 29.1875 -20.828125 C 28.957031 -22.398438 28.25 -23.644531 27.0625 -24.5625 C 25.882812 -25.476562 24.394531 -25.9375 22.59375 -25.9375 C 20.957031 -25.9375 19.453125 -25.566406 18.078125 -24.828125 C 16.703125 -24.097656 15.539062 -23.066406 14.59375 -21.734375 C 13.644531 -20.410156 12.988281 -18.878906 12.625 -17.140625 C 12.101562 -14.554688 12.421875 -12.460938 13.578125 -10.859375 C 14.742188 -9.253906 16.539062 -8.453125 18.96875 -8.453125 C 20.800781 -8.453125 22.507812 -8.925781 24.09375 -9.875 C 25.6875 -10.820312 26.957031 -12.113281 27.90625 -13.75 L 38.015625 -13.75 C 36.941406 -10.738281 35.410156 -8.148438 33.421875 -5.984375 C 31.441406 -3.828125 29.125 -2.164062 26.46875 -1 C 23.820312 0.15625 20.957031 0.734375 17.875 0.734375 Z M 17.875 0.734375 "/></g></g><g style="fill:#d9d9d9;fill-opacity:1;"><g transform="translate(45.074606, 46.338888)"><path style="stroke:none" d="M 1.078125 0 L 7.953125 -34.390625 L 18.03125 -34.390625 L 11.15625 0 Z M 1.078125 0 "/></g></g><g style="fill:#d9d9d9;fill-opacity:1;"><g transform="translate(62.460159, 46.338888)"><path style="stroke:none" d="M 10.5625 0 L 4.515625 -34.390625 L 14.546875 -34.390625 L 16.359375 -23.046875 L 17.734375 -14.09375 L 29.03125 -34.390625 L 40.1875 -34.390625 L 20.4375 0 Z M 10.5625 0 "/></g></g><g style="fill:#d9d9d9;fill-opacity:1;"><g transform="translate(98.606384, 46.338888)"><path style="stroke:none" d="M 1.078125 0 L 7.953125 -34.390625 L 18.03125 -34.390625 L 11.15625 0 Z M 1.078125 0 "/></g></g><g style="fill:#d9d9d9;fill-opacity:1;"><g transform="translate(115.991938, 46.338888)"><path style="stroke:none" d="M 17.875 0.734375 C 14.175781 0.734375 11.054688 -0.0664062 8.515625 -1.671875 C 5.984375 -3.273438 4.191406 -5.476562 3.140625 -8.28125 C 2.097656 -11.082031 1.9375 -14.300781 2.65625 -17.9375 C 3.375 -21.40625 4.695312 -24.421875 6.625 -26.984375 C 8.5625 -29.554688 10.945312 -31.554688 13.78125 -32.984375 C 16.613281 -34.410156 19.734375 -35.125 23.140625 -35.125 C 26.285156 -35.125 29.046875 -34.523438 31.421875 -33.328125 C 33.796875 -32.128906 35.660156 -30.457031 37.015625 -28.3125 C 38.367188 -26.175781 39.066406 -23.679688 39.109375 -20.828125 L 29.1875 -20.828125 C 28.957031 -22.398438 28.25 -23.644531 27.0625 -24.5625 C 25.882812 -25.476562 24.394531 -25.9375 22.59375 -25.9375 C 20.957031 -25.9375 19.453125 -25.566406 18.078125 -24.828125 C 16.703125 -24.097656 15.539062 -23.066406 14.59375 -21.734375 C 13.644531 -20.410156 12.988281 -18.878906 12.625 -17.140625 C 12.101562 -14.554688 12.421875 -12.460938 13.578125 -10.859375 C 14.742188 -9.253906 16.539062 -8.453125 18.96875 -8.453125 C 20.800781 -8.453125 22.507812 -8.925781 24.09375 -9.875 C 25.6875 -10.820312 26.957031 -12.113281 27.90625 -13.75 L 38.015625 -13.75 C 36.941406 -10.738281 35.410156 -8.148438 33.421875 -5.984375 C 31.441406 -3.828125 29.125 -2.164062 26.46875 -1 C 23.820312 0.15625 20.957031 0.734375 17.875 0.734375 Z M 17.875 0.734375 "/></g></g></g></svg>